<svg width="1027" height="367" viewBox="0 0 1027 367" fill="none" xmlns="http://www.w3.org/2000/svg">
<path d="M227.885 225.719H277.036C290.878 225.719 301.728 229.829 308.825 236.758C314.632 242.748 317.975 250.969 317.975 260.54V260.834C317.975 278.978 307.124 289.841 291.699 294.245L321.436 335.995H298.62L271.522 297.534H247.299V335.995H227.944V225.719H227.885ZM275.57 280.387C289.411 280.387 298.268 273.106 298.268 261.949V261.656C298.268 249.853 289.763 243.394 275.452 243.394H247.24V280.446H275.57V280.387Z" fill="white"/>
<path d="M331.176 294.775V294.482C331.176 270.7 348.009 251.146 371.822 251.146C398.274 251.146 411.647 271.933 411.647 295.891C411.647 297.652 411.471 299.355 411.353 301.234H350.238C352.291 314.799 361.91 322.374 374.168 322.374C383.435 322.374 390.063 318.909 396.69 312.45L407.893 322.374C400.033 331.828 389.183 337.993 373.875 337.993C349.769 337.934 331.176 320.436 331.176 294.775ZM392.761 288.61C391.529 276.337 384.256 266.707 371.646 266.707C359.974 266.707 351.821 275.691 350.062 288.61H392.761Z" fill="white"/>
<path d="M415.399 360.952V345.685C417.276 345.978 419.036 346.155 420.737 346.155C426.074 346.155 429.711 343.336 429.711 336.055V252.849H448.773V337.17C448.773 354.023 440.092 361.774 424.549 361.774C420.913 361.774 418.391 361.422 415.399 360.952ZM428.948 221.903H449.418V240.048H428.948V221.903Z" fill="white"/>
<path d="M464.663 325.192L473.168 312.273C482.141 319.026 491.878 322.491 500.382 322.491C508.594 322.491 513.286 319.026 513.286 313.507V313.213C513.286 306.754 504.488 304.522 494.693 301.528C482.435 298.063 468.71 293.013 468.71 277.1V276.806C468.71 261.07 481.79 251.439 498.329 251.439C508.711 251.439 520.031 255.08 528.887 260.893L521.321 274.458C513.286 269.584 504.781 266.589 497.86 266.589C490.47 266.589 486.188 270.054 486.188 274.927V275.221C486.188 281.21 495.162 283.735 504.899 286.906C517.04 290.664 530.705 296.184 530.705 311.158V311.451C530.705 328.95 517.157 337.64 499.854 337.64C488.124 337.64 475.103 333.413 464.663 325.192Z" fill="white"/>
<path d="M543.435 294.775V294.482C543.435 270.7 560.268 251.146 584.081 251.146C610.533 251.146 623.905 271.933 623.905 295.891C623.905 297.652 623.729 299.355 623.612 301.234H562.438C564.491 314.799 574.11 322.374 586.368 322.374C595.635 322.374 602.263 318.909 608.89 312.45L620.093 322.374C612.234 331.828 601.383 337.993 586.075 337.993C561.969 337.934 543.435 320.436 543.435 294.775ZM604.961 288.61C603.729 276.337 596.456 266.707 583.846 266.707C572.174 266.707 564.021 275.691 562.262 288.61H604.961Z" fill="white"/>
<path d="M643.082 225.719H692.525C705.136 225.719 715.048 229.183 721.324 235.467C726.192 240.34 728.714 246.33 728.714 253.728V254.022C728.714 267.293 721.148 274.339 712.995 278.626C725.898 283.03 734.872 290.428 734.872 305.402V305.696C734.872 325.426 718.626 335.936 694.109 335.936H643.082V225.719V225.719ZM688.596 272.225C701.03 272.225 709.359 267.351 709.359 257.252V256.958C709.359 248.267 702.438 242.924 690.003 242.924H662.144V272.225H688.596ZM694.226 318.908C707.482 318.908 715.458 313.682 715.458 303.758V303.464C715.458 294.187 708.068 288.667 692.76 288.667H662.026V318.908H694.226V318.908Z" fill="white"/>
<path d="M752.646 221.903H773.115V240.048H752.646V221.903ZM753.467 252.849H772.529V336.055H753.467V252.849Z" fill="white"/>
<path d="M796.286 220.963H815.348V336.054H796.286V220.963Z" fill="white"/>
<path d="M839.101 220.963H858.163V336.054H839.101V220.963Z" fill="white"/>
<path d="M876.288 294.775V294.482C876.288 270.7 893.121 251.146 916.934 251.146C943.386 251.146 956.759 271.933 956.759 295.891C956.759 297.652 956.583 299.355 956.466 301.234H895.35C897.403 314.799 907.022 322.374 919.28 322.374C928.547 322.374 935.175 318.909 941.803 312.45L953.005 322.374C945.146 331.828 934.295 337.993 918.987 337.993C894.822 337.934 876.288 320.436 876.288 294.775ZM937.814 288.61C936.583 276.337 929.31 266.707 916.699 266.707C905.028 266.707 896.875 275.691 895.115 288.61H937.814Z" fill="white"/>
<path d="M977.695 313.036V269.231H967.137V252.848H977.695V230.006H996.757V252.848H1019.1V269.231H996.757V310.041C996.757 317.44 1000.51 320.435 1007.02 320.435C1011.24 320.435 1015.06 319.495 1018.81 317.616V333.236C1014.06 335.937 1008.72 337.464 1001.62 337.464C987.607 337.464 977.695 331.357 977.695 313.036Z" fill="white"/>
<path d="M117.736 225.955C178.602 225.955 227.944 176.556 227.944 115.62C227.944 54.6835 178.602 5.28491 117.736 5.28491C56.8704 5.28491 7.52881 54.6835 7.52881 115.62C7.52881 176.556 56.8704 225.955 117.736 225.955Z" fill="#084507"/>
<path d="M117.739 214.916C172.515 214.916 216.92 170.46 216.92 115.62C216.92 60.7811 172.515 16.325 117.739 16.325C62.9629 16.325 18.5581 60.7811 18.5581 115.62C18.5581 170.46 62.9629 214.916 117.739 214.916Z" fill="#1E571D"/>
<path d="M117.737 203.877C166.424 203.877 205.891 164.363 205.891 115.621C205.891 66.8784 166.424 27.3647 117.737 27.3647C69.051 27.3647 29.583 66.8784 29.583 115.621C29.583 164.363 69.051 203.877 117.737 203.877Z" fill="#346A33"/>
<path d="M117.739 192.895C160.368 192.895 194.925 158.298 194.925 115.62C194.925 72.9414 160.368 38.344 117.739 38.344C75.1102 38.344 40.5527 72.9414 40.5527 115.62C40.5527 158.298 75.1102 192.895 117.739 192.895Z" fill="#4A7C4A"/>
<path d="M117.737 181.858C154.276 181.858 183.897 152.203 183.897 115.622C183.897 79.0403 154.276 49.3854 117.737 49.3854C81.1983 49.3854 51.5776 79.0403 51.5776 115.622C51.5776 152.203 81.1983 181.858 117.737 181.858Z" fill="#608E60"/>
<path d="M117.735 170.817C148.184 170.817 172.868 146.105 172.868 115.62C172.868 85.1361 148.184 60.4237 117.735 60.4237C87.286 60.4237 62.6021 85.1361 62.6021 115.62C62.6021 146.105 87.286 170.817 117.735 170.817Z" fill="#76A176"/>
<path d="M117.733 159.777C142.093 159.777 161.84 140.007 161.84 115.62C161.84 91.2322 142.093 71.4623 117.733 71.4623C93.3741 71.4623 73.627 91.2322 73.627 115.62C73.627 140.007 93.3741 159.777 117.733 159.777Z" fill="#8CB38C"/>
<path d="M117.737 148.74C136.007 148.74 150.817 133.912 150.817 115.622C150.817 97.3311 136.007 82.5037 117.737 82.5037C99.4676 82.5037 84.6572 97.3311 84.6572 115.622C84.6572 133.912 99.4676 148.74 117.737 148.74Z" fill="#A2C5A3"/>
<path d="M117.736 137.699C129.916 137.699 139.789 127.814 139.789 115.621C139.789 103.427 129.916 93.542 117.736 93.542C105.556 93.542 95.6826 103.427 95.6826 115.621C95.6826 127.814 105.556 137.699 117.736 137.699Z" fill="#B8D8B9"/>
<path d="M117.733 126.661C123.823 126.661 128.76 121.718 128.76 115.621C128.76 109.525 123.823 104.582 117.733 104.582C111.643 104.582 106.707 109.525 106.707 115.621C106.707 121.718 111.643 126.661 117.733 126.661Z" fill="#CEEACF"/>
</svg>
